***************************************************************************

                        XxX Releasers Group

***************************************************************************

screens;
 
http://adulthub.eu/?v=121206layl.jpeg
 
http://adulthub.eu/?v=121206njn.jpeg
 
http://adulthub.eu/?v=121206nmn.jpeg


****************************************************************************

General
Format                                   : MPEG-4
Format profile                           : Base Media
Codec ID                                 : isom
File size                                : 402 MiB
Duration                                 : 35mn 57s
Overall bit rate mode                    : Variable
Overall bit rate                         : 1 564 Kbps
Encoded date                             : UTC 2012-11-27 02:36:34
Tagged date                              : UTC 2012-11-27 02:36:34
Writing application                      : Lavf53.32.100

Video
ID                                       : 1
Format                                   : AVC
Format/Info                              : Advanced Video Codec
Format profile                           : Main@L3.1
Format settings, CABAC                   : Yes
Format settings, ReFrames                : 6 frames
Codec ID                                 : avc1
Codec ID/Info                            : Advanced Video Coding
Duration                                 : 35mn 57s
Bit rate                                 : 1 500 Kbps
Width                                    : 852 pixels
Height                                   : 480 pixels
Display aspect ratio                     : 16:9
Frame rate mode                          : Constant
Frame rate                               : 29.970 fps
Color space                              : YUV
Chroma subsampling                       : 4:2:0
Bit depth                                : 8 bits
Scan type                                : Progressive
Bits/(Pixel*Frame)                       : 0.122
Stream size                              : 383 MiB (95%)
Writing library                          : x264 core 124 r2019+178 69a0443
Encoding settings                        : cabac=1 English
Encoded date                             : UTC 2012-11-27 02:36:34
Tagged date                              : UTC 2012-11-27 02:36:34

Audio
ID                                       : 2
Format                                   : AAC
Format/Info                              : Advanced Audio Codec
Format profile                           : LC
Codec ID                                 : 40
Duration                                 : 35mn 57s
Bit rate mode                            : Variable
Bit rate                                 : 68.6 Kbps
Maximum bit rate                         : 96.0 Kbps
Channel(s)                               : 2 channels
Channel positions                        : Front: L R
Sampling rate                            : 44.1 KHz
Compression mode                         : Lossy
Delay relative to video                  : 67ms
Stream size                              : 17.6 MiB (4%)
Language                                 : English
Encoded date                             : UTC 2012-11-27 02:36:34
Tagged date                              : UTC 2012-11-27 02:36:34